<?xml version="1.0" encoding="iso-8859-1"?>
<!-- Uploaded to: SVG Repo, www.svgrepo.com, Generator: SVG Repo Mixer Tools -->
<svg height="800px" width="800px" version="1.1" id="Layer_1" xmlns="http://www.w3.org/2000/svg" xmlns:xlink="http://www.w3.org/1999/xlink" 
	 viewBox="0 0 512.001 512.001" xml:space="preserve">
<path style="fill:#ECD788;" d="M477.288,274.571l-23.195-23.195L304.369,401.101l-20.185-20.185l149.724-149.724l-23.195-23.195
	L260.989,357.721l-20.185-20.185l149.724-149.724l-23.195-23.195L217.61,314.341l-20.185-20.185l149.724-149.724l-23.195-23.195
	L174.23,270.961l-20.185-20.184l149.724-149.725l-23.195-23.195L130.85,227.583l-20.185-20.185L260.39,57.672l-23.195-23.195
	L87.47,184.203l-19.97-19.97L217.225,14.507l0,0c-19.342-19.342-50.702-19.342-70.045,0L20.88,140.808
	c-27.841,27.841-27.841,73.14,0,100.981L270.212,491.12c13.92,13.92,32.205,20.881,50.491,20.881
	c18.285,0,36.57-6.961,50.491-20.881l126.3-126.3c19.342-19.342,19.342-50.702,0-70.045L347.769,444.5l-20.205-20.205
	L477.288,274.571z"/>
<path style="fill:#E7C64B;" d="M327.563,424.295l43.818-43.818l-23.195-23.195l-43.818,43.818l-20.185-20.185l43.818-43.818
	l-23.195-23.195l-43.818,43.818l-20.185-20.185l43.818-43.818l-23.195-23.195l-43.818,43.818l-20.185-20.185l43.818-43.818
	l-23.195-23.195l-43.818,43.818l-20.184-20.184l43.818-43.818l-23.195-23.195l-43.818,43.818l-20.185-20.185l43.818-43.818
	l-23.195-23.195L87.47,184.203l-19.97-19.97l43.818-43.818L76.297,85.391L20.88,140.808c-27.841,27.841-27.841,73.14,0,100.981
	L270.212,491.12c13.92,13.92,32.205,20.881,50.491,20.881c18.285,0,36.57-6.961,50.491-20.881l55.416-55.416l-35.022-35.022
	L347.77,444.5L327.563,424.295z"/>
</svg>