<?xml version="1.0" encoding="iso-8859-1"?>
<!-- Uploaded to: SVG Repo, www.svgrepo.com, Generator: SVG Repo Mixer Tools -->
<svg height="800px" width="800px" version="1.1" id="Layer_1" xmlns="http://www.w3.org/2000/svg" xmlns:xlink="http://www.w3.org/1999/xlink" 
	 viewBox="0 0 511.992 511.992" xml:space="preserve">
<g>
	<path style="fill:#D770AD;" d="M357.994,85.334c0-5.89-4.781-10.664-10.656-10.664H245.746v21.328h101.591
		C353.213,95.998,357.994,91.225,357.994,85.334z"/>
	<path style="fill:#D770AD;" d="M347.338,117.334H245.746v21.336h101.591c5.875,0,10.656-4.773,10.656-10.672
		C357.994,122.107,353.213,117.334,347.338,117.334z"/>
	<path style="fill:#D770AD;" d="M347.338,159.997H245.746l-1.336,21.336h101.583c5.891,0,10.656-4.773,10.656-10.664
		S351.885,159.997,347.338,159.997z"/>
	<path style="fill:#D770AD;" d="M347.338,202.668H245.746v21.335h101.591c5.875,0,10.656-4.781,10.656-10.672
		C357.994,207.442,353.213,202.668,347.338,202.668z"/>
	<path style="fill:#D770AD;" d="M345.994,245.332H244.411v21.336h101.583c5.891,0,10.656-4.773,10.656-10.664
		C356.65,250.105,351.885,245.332,345.994,245.332z"/>
	<path style="fill:#D770AD;" d="M345.994,287.995H244.411v21.344h101.583c5.891,0,10.656-4.781,10.656-10.672
		S351.885,287.995,345.994,287.995z"/>
	<path style="fill:#D770AD;" d="M345.994,330.666H244.411v21.328h101.583c5.891,0,10.656-4.781,10.656-10.656
		C356.65,335.432,351.885,330.666,345.994,330.666z"/>
	<path style="fill:#D770AD;" d="M345.994,373.338H244.411v21.328h101.583c5.891,0,10.656-4.766,10.656-10.672
		C356.65,378.103,351.885,373.338,345.994,373.338z"/>
	<path style="fill:#D770AD;" d="M345.994,415.993H244.411v21.343h101.583c5.891,0,10.656-4.781,10.656-10.672
		C356.65,420.774,351.885,415.993,345.994,415.993z"/>
</g>
<path style="fill:#EC87C0;" d="M260.66,458.664V53.335h92.303c0,0,16.844-43.999-21.343-53.335H196.661
	c0,0-42.663,25.734-42.663,256.004c0,230.254,42.663,255.988,42.663,255.988H331.62c38.187-9.328,21.343-53.328,21.343-53.328
	H260.66z"/>
</svg>