<?xml version="1.0" encoding="iso-8859-1"?>
<!-- Uploaded to: SVG Repo, www.svgrepo.com, Generator: SVG Repo Mixer Tools -->
<!DOCTYPE svg PUBLIC "-//W3C//DTD SVG 1.1//EN" "http://www.w3.org/Graphics/SVG/1.1/DTD/svg11.dtd">
<svg fill="#000000" version="1.1" id="Capa_1" xmlns="http://www.w3.org/2000/svg" xmlns:xlink="http://www.w3.org/1999/xlink" 
	 width="800px" height="800px" viewBox="0 0 65.687 65.687"
	 xml:space="preserve">
<g>
	<g>
		<path d="M14.258,15.954c-1.883,2.405-5.737,13.908-5.737,20.39c0,6.48,3.543,10.039,3.84,12.315
			c0.297,2.278-0.925,8.597,0.642,12.151c1.568,3.556,3.553,5.021,7.005,4.865c3.453-0.15,6.693-2.462,7.007-6.54
			c0.314-4.078-1.978-11.17-2.405-13.593s2.719-6.482,3.453-11.816c0.733-5.333-2.407-17.252-4.286-18.716
			C21.891,13.551,16.141,13.549,14.258,15.954z"/>
		<path d="M53.325,34.647c0.297-2.28,3.84-5.835,3.84-12.316c0-6.482-3.854-17.986-5.737-20.39C49.544-0.461,43.795-0.461,41.911,1
			c-1.88,1.462-5.019,13.382-4.286,18.716c0.732,5.335,3.88,9.395,3.451,11.817c-0.427,2.422-2.719,9.515-2.404,13.592
			c0.314,4.078,3.554,6.387,7.008,6.539c3.453,0.155,5.436-1.309,7.005-4.865C54.254,43.246,53.029,36.928,53.325,34.647z"/>
	</g>
</g>
</svg>