<?xml version="1.0" encoding="iso-8859-1"?>
<!-- Uploaded to: SVG Repo, www.svgrepo.com, Generator: SVG Repo Mixer Tools -->
<svg version="1.1" id="Layer_1" xmlns="http://www.w3.org/2000/svg" xmlns:xlink="http://www.w3.org/1999/xlink" 
	 viewBox="0 0 504 504" xml:space="preserve">
<rect x="6" y="334" style="fill:#10927A;" width="496" height="100"/>
<path style="fill:#F4EFEF;" d="M199.2,245.2c-4.4-13.6-7.6-28.8-7.6-45.2c0-52.4,28.4-95.2,63.2-95.2S318,147.2,318,200
	c0,52.4-28.4,95.2-63.2,95.2c-15.6,0-30-8.8-41.2-23.2C213.6,272,202.4,255.6,199.2,245.2z"/>
<path style="fill:#54B265;" d="M2,70v268h496V70H2z"/>
<path style="fill:#61C2AB;" d="M470,144.4c0-20-15.2-38.4-36.8-38.4H86.4c-21.2,0-48.8,18.4-48.8,38.4v115.2c0,7.6,2,18,7.6,24
	c2,2,4.8,5.2,7.2,7.2c4.8,3.6,10.4,5.6,16,7.6s12-0.4,17.6-0.4h346.8c21.2,0,36.8-18.4,36.8-38.4C470,259.6,470,144.4,470,144.4z"/>
<g>
	<circle style="fill:#E8E3E3;" cx="396.8" cy="199.6" r="21.2"/>
	<circle style="fill:#E8E3E3;" cx="118" cy="199.6" r="21.2"/>
</g>
<path style="fill:#AEB1B4;" d="M312.8,245.6c-2-15.2-21.6-19.6-41.6-21.6v-13.2c8-6.8,13.6-20.4,13.6-34c0-23.6-10.8-30-26-30
	s-28.8,6.4-28.8,30c0,13.6,5.2,27.6,9.2,34V224c-16,2.4-40.8,6-40.8,22.4l0,0c4,10.4,15.2,29.2,15.2,29.2
	c11.2,14.4,30.4,19.2,46,19.2c23.6,0,42-19.2,52.8-47.6L312.8,245.6z"/>
<path d="M500,340H4c-2.4,0-4-1.6-4-4V68c0-2.4,1.6-4,4-4h496c2.4,0,4,1.6,4,4v268C504,338.4,502.4,340,500,340z M8,332h488V72H8V332
	z"/>
<path d="M430.8,308h-354c-22.8,0-41.2-18.4-41.2-41.2v-126c0-22.8,18.4-41.2,41.2-41.2h354c22.8,0,41.2,18.4,41.2,41.2v126
	C472,289.6,453.6,308,430.8,308z M77.2,108C58.8,108,44,122.8,44,141.2v126c0,18.4,14.8,33.2,33.2,33.2h354
	c18.4,0,33.2-14.8,33.2-33.2v-126c0-18.4-14.8-33.2-33.2-33.2H77.2z"/>
<path d="M256.4,302.4c-39.6,0-71.6-46.4-71.6-103.2c0-55.2,30-95.2,71.6-95.2c17.6,0,34.4,1.2,47.2,17.6c1.2,1.6,1.2,4.4-0.8,5.6
	c-1.6,1.2-4.4,1.2-5.6-0.8c-10.8-13.6-24.4-14.4-40.8-14.4c-36.8,0-63.6,36.8-63.6,87.2c0,52.4,28.4,95.2,63.6,95.2
	s63.6-42.8,63.6-95.2c0-16-2.8-32-8-45.6c-0.8-2,0.4-4.4,2.4-5.2c2-0.8,4.4,0.4,5.2,2.4c5.6,14.8,8.4,31.6,8.4,48.4
	C328,256,296,302.4,256.4,302.4z"/>
<path d="M314,250.4c-2.4,0-4-1.6-4-4c0-12-16.4-15.6-35.2-18l-3.6-0.4c-2-0.4-3.6-2-3.6-4v-13.6c0-1.2,0.4-2.4,1.2-3.2
	c6-5.2,9.2-16.4,9.2-32.4c0-24-11.2-27.6-23.2-27.6c-17.6,0-25.6,8.4-25.6,27.6c0,12.4,5.2,26,9.6,33.6c0.4,0.8,0.4,1.2,0.4,2V224
	c0,2-1.6,3.6-3.6,4l-2.4,0.4c-18.4,2.8-32.8,5.6-32.8,18.4c0,2.4-1.6,4-4,4s-4-1.6-4-4c0-20,22.8-23.6,38.8-26v-9.2
	c-2.4-4.8-10.4-20-10.4-36.8c0-23.2,11.6-35.6,33.6-35.6c20.8,0,31.2,11.6,31.2,35.6c0,17.6-3.6,30.4-10.4,37.2v8.4
	c16.8,2.4,42,6,42,26C318,248.8,316.4,250.4,314,250.4z"/>
<path d="M395.6,227.2c-15.6,0-28-12.8-28-28c0-15.6,12.8-28,28-28c2.4,0,4,1.6,4,4s-1.6,4-4,4c-11.2,0-20,9.2-20,20
	c0,11.2,9.2,20,20,20c11.2,0,20-9.2,20-20c0-2.4,1.6-4,4-4s4,1.6,4,4C424,214.4,411.2,227.2,395.6,227.2z"/>
<path d="M117.6,227.2c-15.6,0-28-12.8-28-28c0-15.6,12.8-28,28-28c2.4,0,4,1.6,4,4s-1.6,4-4,4c-11.2,0-20,9.2-20,20
	c0,11.2,9.2,20,20,20c11.2,0,20-9.2,20-20c0-2.4,1.6-4,4-4s4,1.6,4,4C146,214.4,133.2,227.2,117.6,227.2z"/>
<path d="M500,440H4c-2.4,0-4-1.6-4-4V158c0-2.4,1.6-4,4-4s4,1.6,4,4v274h488V158c0-2.4,1.6-4,4-4s4,1.6,4,4v278
	C504,438.4,502.4,440,500,440z"/>
<path d="M478,360H6c-2.4,0-4-1.6-4-4s1.6-4,4-4h472c2.4,0,4,1.6,4,4S480.4,360,478,360z"/>
<path d="M478,380H6c-2.4,0-4-1.6-4-4s1.6-4,4-4h472c2.4,0,4,1.6,4,4S480.4,380,478,380z"/>
<path d="M478,400H6c-2.4,0-4-1.6-4-4s1.6-4,4-4h472c2.4,0,4,1.6,4,4S480.4,400,478,400z"/>
<path d="M478,420H6c-2.4,0-4-1.6-4-4s1.6-4,4-4h472c2.4,0,4,1.6,4,4S480.4,420,478,420z"/>
</svg>